<svg width="900" height="900" viewBox="0 0 900 900" fill="none" xmlns="http://www.w3.org/2000/svg">
<circle cx="450" cy="450" r="450" fill="#F1FAEE"/>
<circle cx="661.5" cy="321" r="112.5" fill="#E3EBE0" fill-opacity="0.34"/>
<circle cx="661.5" cy="321" r="112.5" fill="#E3EBE0" fill-opacity="0.34"/>
<circle cx="661.5" cy="321" r="112.5" fill="#E3EBE0" fill-opacity="0.34"/>
<path d="M850.5 522C788.368 522 738 572.368 738 634.5C738 677.972 762.658 715.686 798.75 734.417C851.439 663.513 873.544 619.397 893.25 530.407C880.07 524.988 865.634 522 850.5 522Z" fill="#E3EBE0"/>
<circle cx="228" cy="634.5" r="75" fill="#E3EBE0" fill-opacity="0.34"/>
<circle cx="228" cy="634.5" r="75" fill="#E3EBE0" fill-opacity="0.34"/>
<circle cx="228" cy="634.5" r="75" fill="#E3EBE0" fill-opacity="0.34"/>
<path d="M117 585C117 543.579 83.4214 510 42 510C28.954 510 15.936 513.892 5.25 519.75C14.2486 575.467 24.8298 605.617 51.75 659.372C88.5649 654.593 117 623.117 117 585Z" fill="#E3EBE0" fill-opacity="0.34"/>
<circle cx="412.5" cy="117" r="37.5" fill="#E3EBE0" fill-opacity="0.34"/>
<circle cx="412.5" cy="117" r="37.5" fill="#E3EBE0" fill-opacity="0.34"/>
<circle cx="412.5" cy="117" r="37.5" fill="#E3EBE0" fill-opacity="0.34"/>
<circle cx="450" cy="510" r="37.5" fill="#E3EBE0" fill-opacity="0.34"/>
<circle cx="450" cy="510" r="37.5" fill="#E3EBE0" fill-opacity="0.34"/>
<circle cx="450" cy="510" r="37.5" fill="#E3EBE0" fill-opacity="0.34"/>
<circle cx="364.5" cy="775.5" r="30" fill="#E3EBE0" fill-opacity="0.34"/>
<circle cx="364.5" cy="775.5" r="30" fill="#E3EBE0" fill-opacity="0.34"/>
<circle cx="364.5" cy="775.5" r="30" fill="#E3EBE0" fill-opacity="0.34"/>
</svg>
